<svg width="81" height="81" viewBox="0 0 81 81" fill="none" xmlns="http://www.w3.org/2000/svg">
<g clip-path="url(#clip0_4_201)">
<path d="M74.734 11.3591C71.692 11.3591 69.2183 13.8328 69.2183 16.8748C69.2183 19.4367 70.9824 21.5778 73.3551 22.1946V47.2113H69.2183V32.043C69.2183 29.7619 67.3627 27.9062 65.0815 27.9062H7.16645C4.88597 27.9062 3.02966 29.7619 3.02966 32.043V72.032H17.6276L20.3855 69.2741H51.8632L54.621 72.032H69.2183V63.7584H71.9762C74.2573 63.7584 76.1129 61.9021 76.1129 59.6216V22.1946C78.4864 21.5778 80.2497 19.4367 80.2497 16.8748C80.2497 13.8328 77.776 11.3591 74.734 11.3591ZM66.4604 63.7584C66.4604 65.2794 65.2236 66.5163 63.7026 66.5163H5.78752V30.6641H63.7026C65.2236 30.6641 66.4604 31.901 66.4604 33.4219V63.7584Z" fill="#3052F8"/>
<path d="M54.3537 25.1484L59.5657 4.46443L45.7764 12.738L36.1132 0.30542L26.4714 12.738L12.6821 4.46443L17.8949 25.1484H54.3537ZM49.9132 19.6327C50.6747 19.6327 51.2922 20.2501 51.2922 21.0116C51.2922 21.7724 50.6747 22.3905 49.9132 22.3905C49.1524 22.3905 48.5343 21.7724 48.5343 21.0116C48.5343 20.2501 49.1524 19.6327 49.9132 19.6327ZM36.1239 14.1169C38.4051 14.1169 40.2607 15.9726 40.2607 18.2537C40.2607 20.5342 38.4051 22.3905 36.1239 22.3905C33.8435 22.3905 31.9871 20.5342 31.9871 18.2537C31.9871 15.9726 33.8435 14.1169 36.1239 14.1169ZM22.3346 19.6327C23.0961 19.6327 23.7136 20.2501 23.7136 21.0116C23.7136 21.7724 23.0961 22.3905 22.3346 22.3905C21.5738 22.3905 20.9557 21.7724 20.9557 21.0116C20.9557 20.2501 21.5738 19.6327 22.3346 19.6327Z" fill="#3052F8"/>
<path d="M27.8503 61.0005H44.3975V63.7584H27.8503V61.0005Z" fill="#3052F8"/>
<path d="M8.54541 33.4219H25.0926V36.1798H8.54541V33.4219Z" fill="#3052F8"/>
<path d="M27.8503 58.2427H44.3975V33.4219H27.8503V58.2427ZM30.6082 38.9377H41.6396V42.0524L34.5713 54.7758L32.1608 53.4353L38.6832 41.6955H30.6082V38.9377Z" fill="#3052F8"/>
<path d="M47.1554 38.9377V63.7584H63.7039L63.7026 38.9377H47.1554ZM60.9447 47.5681L53.8763 60.2916L51.4659 58.951L57.9882 47.2113H49.9133V44.4534H60.9447V47.5681Z" fill="#3052F8"/>
<path d="M47.1554 33.4219H63.7026V36.1798H47.1554V33.4219Z" fill="#3052F8"/>
<path d="M37.5029 18.2537C37.5029 19.0153 36.8854 19.6327 36.1239 19.6327C35.3624 19.6327 34.745 19.0153 34.745 18.2537C34.745 17.4922 35.3624 16.8748 36.1239 16.8748C36.8854 16.8748 37.5029 17.4922 37.5029 18.2537Z" fill="#3052F8"/>
<path d="M70.5973 74.7898H53.4798L50.722 72.032H21.5268L18.7689 74.7898H1.65078C0.889945 74.7898 0.271851 75.4086 0.271851 76.1688V80.3056H71.9762V76.1688C71.9762 75.4086 71.3588 74.7898 70.5973 74.7898ZM27.8504 77.5477H25.0926V74.7898H27.8504V77.5477ZM37.503 77.5477H34.7451V74.7898H37.503V77.5477ZM47.1555 77.5477H44.3976V74.7898H47.1555V77.5477Z" fill="#3052F8"/>
<path d="M8.54541 63.7584H25.0926V38.9377H8.54541V63.7584ZM11.3033 44.4534H22.3347V47.5681L15.2663 60.2916L12.8559 58.951L19.3782 47.2113H11.3033V44.4534Z" fill="#3052F8"/>
</g>
<defs>
<clipPath id="clip0_4_201">
<rect width="80" height="80" fill="white" transform="translate(0.25 0.30542)"/>
</clipPath>
</defs>
</svg>
