<svg width="81" height="81" viewBox="0 0 81 81" fill="none" xmlns="http://www.w3.org/2000/svg">
<g clip-path="url(#clip0_4_238)">
<path d="M39.2312 0.30542C29.7138 0.660471 20.6381 4.40964 13.6445 10.8747L20.9042 18.1343C25.9646 13.5854 32.4356 10.9155 39.2312 10.5723V0.30542Z" fill="#3052F8"/>
<path d="M18.6619 60.2461C14.0626 55.1724 11.3615 48.6636 11.0168 41.8242H0.750732C1.10727 51.3847 4.88905 60.4989 11.406 67.5035L18.6619 60.2461Z" fill="#3052F8"/>
<path d="M70.0948 13.108L62.8374 20.3647C67.4368 25.4385 70.1386 31.948 70.4832 38.7881H80.7493C80.3928 29.2269 76.6118 20.1127 70.0948 13.108Z" fill="#3052F8"/>
<path d="M39.2311 80.3054V70.0393C32.3917 69.6946 25.8829 66.9928 20.8092 62.3934L13.5518 69.6509C20.5564 76.1678 29.6706 79.9488 39.2311 80.3054Z" fill="#3052F8"/>
<path d="M67.9474 10.9614C60.9427 4.44373 51.8285 0.661954 42.2673 0.30542V10.5715C49.1074 10.9162 55.617 13.6187 60.6907 18.2181L67.9474 10.9614Z" fill="#3052F8"/>
<path d="M18.7472 20.2706L11.4912 13.0154C4.92241 20.0312 1.10802 29.1832 0.75 38.7881H11.0161C11.363 31.905 14.0967 25.3577 18.7472 20.2706Z" fill="#3052F8"/>
<path d="M40.7493 67.041C55.4917 67.041 67.4848 55.0486 67.4848 40.3054C67.4848 25.5623 55.4917 13.5691 40.7493 13.5691C26.0068 13.5691 14.0144 25.5637 14.0144 40.3062C14.0144 55.0486 26.0076 67.041 40.7493 67.041ZM27.4819 39.4634L39.4869 21.4944C39.7686 21.0726 40.2422 20.8198 40.7485 20.8198C41.2555 20.8198 41.7292 21.0726 42.0108 21.4944L54.0151 39.4641C54.3568 39.9748 54.3568 40.6405 54.0151 41.1504L42.0108 59.1202C41.7292 59.5419 41.2555 59.7947 40.7485 59.7947C40.2422 59.7947 39.7686 59.5419 39.4869 59.1202L27.4819 41.1519C27.1402 40.6405 27.1402 39.9741 27.4819 39.4634Z" fill="#3052F8"/>
<path d="M70.4832 41.8242C70.14 48.6199 67.4701 55.0908 62.9219 60.152L70.1808 67.4109C76.6458 60.4173 80.3957 51.3417 80.75 41.8242H70.4832Z" fill="#3052F8"/>
<path d="M42.2673 80.3054C51.8723 79.9474 61.0243 76.133 68.0401 69.5642L60.7849 62.3082C55.6978 66.9587 49.1504 69.6917 42.2673 70.0386V80.3054Z" fill="#3052F8"/>
<path d="M50.9286 40.3061L40.7492 25.0701L30.5698 40.3061L40.7492 55.5422L50.9286 40.3061Z" fill="#3052F8"/>
</g>
<defs>
<clipPath id="clip0_4_238">
<rect width="80" height="80" fill="white" transform="translate(0.75 0.30542)"/>
</clipPath>
</defs>
</svg>
