<svg width="81" height="81" viewBox="0 0 81 81" fill="none" xmlns="http://www.w3.org/2000/svg">
<g clip-path="url(#clip0_4_226)">
<path d="M40.5939 62.8054C39.5648 62.8054 38.5876 62.5814 37.7057 62.1823L33.9343 64.0681L36.4543 80.3054H44.7332L47.2532 64.0681L43.4818 62.1823C42.6001 62.5814 41.6229 62.8054 40.5939 62.8054Z" fill="#3052F8"/>
<path d="M40.5938 58.1179C41.8882 58.1179 42.9375 57.0686 42.9375 55.7742C42.9375 54.4798 41.8882 53.4304 40.5938 53.4304C39.2993 53.4304 38.25 54.4798 38.25 55.7742C38.25 57.0686 39.2993 58.1179 40.5938 58.1179Z" fill="#3052F8"/>
<path d="M50.0512 60.2262C51.0901 60.7456 52.3125 59.9903 52.3125 58.8287V52.7197C52.3125 51.5581 51.0901 50.8026 50.0512 51.3222L46.9873 52.854C47.3956 53.7442 47.625 54.7326 47.625 55.7742C47.625 56.8158 47.3956 57.8042 46.9873 58.6944L50.0512 60.2262Z" fill="#3052F8"/>
<path d="M31.1363 51.3222C30.0973 50.8028 28.875 51.5581 28.875 52.7197V58.8287C28.875 59.9903 30.0973 60.7458 31.1363 60.2262L34.2002 58.6944C33.7919 57.8042 33.5625 56.8158 33.5625 55.7742C33.5625 54.7326 33.7919 53.7442 34.2002 52.854L31.1363 51.3222Z" fill="#3052F8"/>
<path d="M24.1875 58.8287V56.4217L16.0814 59.1237C10.6495 60.9343 7 65.9978 7 71.7236V77.9617C7 79.2561 8.04937 80.3054 9.34375 80.3054H15.5938V72.1804C15.5938 70.8861 16.6431 69.8367 17.9375 69.8367C19.2319 69.8367 20.2812 70.8861 20.2812 72.1804V80.3054H31.7106L29.333 64.9851C26.5205 64.4711 24.1875 62.0379 24.1875 58.8287Z" fill="#3052F8"/>
<path d="M65.106 59.1239L56.9999 56.4217V58.8287C56.9999 62.0379 54.667 64.4711 51.8545 64.9851L49.4768 80.3054H60.9062V72.1804C60.9062 70.8861 61.9556 69.8367 63.2499 69.8367C64.5443 69.8367 65.5937 70.8861 65.5937 72.1804V80.3054H71.8437C73.1381 80.3054 74.1874 79.2561 74.1874 77.9617V71.7236C74.1874 65.9978 70.5379 60.9343 65.106 59.1239Z" fill="#3052F8"/>
<path d="M14.8125 19.0554H66.375C67.6694 19.0554 68.7188 18.006 68.7188 16.7117C68.7188 15.4173 67.6694 14.3679 66.375 14.3679H56.2188V8.11792C56.2188 3.80323 52.7209 0.30542 48.4062 0.30542H32.7812C28.4666 0.30542 24.9688 3.80323 24.9688 8.11792V14.3679H14.8125C13.5181 14.3679 12.4688 15.4173 12.4688 16.7117C12.4688 18.006 13.5181 19.0554 14.8125 19.0554Z" fill="#3052F8"/>
<path d="M35.0303 41.7496C34.115 40.8343 34.115 39.3504 35.0303 38.4351C35.9455 37.5198 37.4295 37.5198 38.3448 38.4351C38.9464 39.0367 39.7452 39.3679 40.5939 39.3679C41.4427 39.3679 42.2413 39.0367 42.843 38.4351C43.7581 37.5198 45.2422 37.5198 46.1575 38.4351C46.4283 38.7059 46.6169 39.027 46.7275 39.3679H54.9177C55.7541 37.4539 56.2191 35.3404 56.2191 33.1179V23.7429H24.9688V33.1179C24.9688 41.7473 31.9642 48.7429 40.5938 48.7429C44.9642 48.7429 48.915 46.9478 51.7508 44.0554H40.5938C38.493 44.0554 36.5172 43.2365 35.0303 41.7496Z" fill="#3052F8"/>
<path d="M64.8125 41.7117C64.8125 40.4173 63.7631 39.3679 62.4687 39.3679H54.9173C54.1509 41.1218 53.072 42.7078 51.7507 44.0554H62.4687C63.7631 44.0554 64.8125 43.006 64.8125 41.7117Z" fill="#3052F8"/>
</g>
<defs>
<clipPath id="clip0_4_226">
<rect width="80" height="80" fill="white" transform="translate(0.25 0.30542)"/>
</clipPath>
</defs>
</svg>
