<svg width="81" height="81" viewBox="0 0 81 81" fill="none" xmlns="http://www.w3.org/2000/svg">
<g clip-path="url(#clip0_4_212)">
<path d="M14.3476 48.6605C14.3476 49.4245 13.7282 50.0439 12.9642 50.0439C12.2002 50.0439 11.5808 49.4245 11.5808 48.6605C11.5808 47.8965 12.2002 47.2771 12.9642 47.2771C13.7282 47.2771 14.3476 47.8965 14.3476 48.6605Z" fill="#3052F8"/>
<path d="M14.3476 65.2611C14.3476 66.0251 13.7282 66.6445 12.9642 66.6445C12.2002 66.6445 11.5808 66.0251 11.5808 65.2611C11.5808 64.4972 12.2002 63.8777 12.9642 63.8777C13.7282 63.8777 14.3476 64.4972 14.3476 65.2611Z" fill="#3052F8"/>
<path d="M22.6479 56.9608C22.6479 57.7248 22.0285 58.3442 21.2645 58.3442C20.5005 58.3442 19.8811 57.7248 19.8811 56.9608C19.8811 56.1968 20.5005 55.5774 21.2645 55.5774C22.0285 55.5774 22.6479 56.1968 22.6479 56.9608Z" fill="#3052F8"/>
<path d="M30.9482 65.2611C30.9482 66.0251 30.3288 66.6445 29.5648 66.6445C28.8008 66.6445 28.1814 66.0251 28.1814 65.2611C28.1814 64.4972 28.8008 63.8777 29.5648 63.8777C30.3288 63.8777 30.9482 64.4972 30.9482 65.2611Z" fill="#3052F8"/>
<path d="M30.9482 48.6605C30.9482 49.4245 30.3288 50.0439 29.5648 50.0439C28.8008 50.0439 28.1814 49.4245 28.1814 48.6605C28.1814 47.8965 28.8008 47.2771 29.5648 47.2771C30.3288 47.2771 30.9482 47.8965 30.9482 48.6605Z" fill="#3052F8"/>
<path d="M39.2484 38.9768V39.7475L48.362 30.6332C35.7278 19.0946 21.2008 13.8684 14.8283 18.6481L13.9934 19.3216C10.3965 22.9651 10.8308 30.2779 15.1235 38.9768H39.2484ZM34.4896 23.8757C35.3914 24.3748 36.3141 24.9227 37.2327 25.5049L35.7521 27.8435C34.8699 27.2842 33.9999 26.7694 33.1488 26.2979L34.4896 23.8757ZM15.9807 21.2433C18.684 18.5427 25.5151 19.2871 32.9401 23.0536L31.6897 25.5205C27.6456 23.4704 23.8609 22.3403 21.032 22.3403C19.5918 22.3403 18.4922 22.6456 17.9369 23.1988C17.0128 24.1249 16.6683 27.1795 18.1017 31.6944L15.4653 32.5327C13.8381 27.4145 14.0306 23.1934 15.9807 21.2433Z" fill="#3052F8"/>
<path d="M75.2496 14.0717C78.2859 14.0534 80.7501 11.5812 80.7501 8.54216C80.7501 5.49033 78.2683 3.00861 75.2165 3.00861C72.1768 3.00861 69.7052 5.47209 69.687 8.50906C71.7303 10.162 73.5967 12.027 75.2496 14.0717Z" fill="#3052F8"/>
<path d="M57.2325 50.0439C57.2325 51.5718 55.9937 52.8107 54.4658 52.8107C52.9378 52.8107 51.699 51.5718 51.699 50.0439C51.699 48.5159 52.9378 47.2771 54.4658 47.2771C55.9937 47.2771 57.2325 48.5159 57.2325 50.0439Z" fill="#3052F8"/>
<path d="M66.5678 59.3818C65.1952 51.6542 59.5123 41.6672 50.8027 32.9562C50.6588 32.8137 50.5109 32.684 50.367 32.5414L39.2485 43.6592V56.3482L54.4253 71.5249L66.5678 59.3818ZM48.9323 50.0439C48.9323 46.992 51.414 44.5103 54.4658 44.5103C57.5176 44.5103 59.9994 46.992 59.9994 50.0439C59.9994 53.0957 57.5176 55.5774 54.4658 55.5774C51.414 55.5774 48.9323 53.0957 48.9323 50.0439Z" fill="#3052F8"/>
<path d="M36.4817 41.7435H6.04712V72.1781H36.4817V41.7435ZM12.9641 44.5103C15.2519 44.5103 17.1142 46.3726 17.1142 48.6605C17.1142 50.9483 15.2519 52.8106 12.9641 52.8106C10.6755 52.8106 8.8139 50.9483 8.8139 48.6605C8.8139 46.3726 10.6755 44.5103 12.9641 44.5103ZM12.9641 69.4113C10.6755 69.4113 8.8139 67.549 8.8139 65.2611C8.8139 62.9733 10.6755 61.111 12.9641 61.111C15.2519 61.111 17.1142 62.9733 17.1142 65.2611C17.1142 67.549 15.2519 69.4113 12.9641 69.4113ZM21.2644 61.111C18.9759 61.111 17.1142 59.2487 17.1142 56.9608C17.1142 54.6729 18.9759 52.8106 21.2644 52.8106C23.5523 52.8106 25.4146 54.6729 25.4146 56.9608C25.4146 59.2487 23.5523 61.111 21.2644 61.111ZM29.5647 69.4113C27.2762 69.4113 25.4146 67.549 25.4146 65.2611C25.4146 62.9733 27.2762 61.111 29.5647 61.111C31.8526 61.111 33.7149 62.9733 33.7149 65.2611C33.7149 67.549 31.8526 69.4113 29.5647 69.4113ZM29.5647 52.8106C27.2762 52.8106 25.4146 50.9483 25.4146 48.6605C25.4146 46.3726 27.2762 44.5103 29.5647 44.5103C31.8526 44.5103 33.7149 46.3726 33.7149 48.6605C33.7149 50.9483 31.8526 52.8106 29.5647 52.8106Z" fill="#3052F8"/>
<path d="M4.66375 77.7117H54.4658C56.2693 77.7117 57.808 76.5552 58.3795 74.9449H0.75C1.32146 76.5552 2.85953 77.7117 4.66375 77.7117Z" fill="#3052F8"/>
<path d="M64.4663 69.7389L64.4771 69.7254C66.0942 68.1043 66.8609 65.7671 66.8913 62.9686L57.6919 72.1686C60.6066 72.1531 62.8783 71.3243 64.4663 69.7389Z" fill="#3052F8"/>
<path d="M46.3533 3.00861C38.519 3.00861 30.8469 5.71864 24.7493 10.6409L20.4978 14.073C29.3791 13.813 41.7539 19.9977 52.7589 31.0013C59.9007 38.1438 65.2931 46.2105 67.9424 53.7178C69.3217 57.6234 69.8783 61.1663 69.6304 64.2013L71.5184 62.1748C77.4714 55.7848 80.7502 47.4567 80.7502 38.7221V37.4049C80.7502 18.4387 65.3195 3.00861 46.3533 3.00861ZM31.6345 12.5802L30.2234 10.1991C31.1529 9.64995 32.1242 9.13996 33.1131 8.68469L34.2695 11.1968C33.3678 11.6149 32.4809 12.0797 31.6345 12.5802ZM35.609 10.6226L34.5796 8.05649C35.5354 7.67214 36.5189 7.33305 37.5011 7.04664L38.2758 9.70264C37.3795 9.96135 36.4831 10.2727 35.609 10.6226ZM64.7662 15.1963C57.8493 9.45406 48.3716 7.22497 39.5734 9.35409L38.9216 6.66635C41.3608 6.0753 43.8621 5.77538 46.3533 5.77538C53.7059 5.77538 60.8734 8.36518 66.5347 13.0672L64.7662 15.1963ZM75.1255 41.0214L77.8834 41.2342C77.8091 42.1873 77.6889 43.1546 77.5254 44.105L74.7985 43.6375C74.9478 42.7702 75.0572 41.8887 75.1255 41.0214ZM74.2331 46.2145L76.9053 46.9312C76.6568 47.858 76.3623 48.7861 76.0299 49.6872L73.4334 48.7307C73.7373 47.9066 74.0062 47.0609 74.2331 46.2145ZM72.4066 51.1631L74.9039 52.3513C74.4959 53.2105 74.0352 54.0684 73.5401 54.9019L71.1617 53.4868C71.6143 52.7248 72.0331 51.9433 72.4066 51.1631Z" fill="#3052F8"/>
</g>
<defs>
<clipPath id="clip0_4_212">
<rect width="80" height="80" fill="white" transform="translate(0.75 0.30542)"/>
</clipPath>
</defs>
</svg>
